<svg xmlns="http://www.w3.org/2000/svg" viewBox="0 0 64 64" fill="none" stroke="#000" stroke-width="2.2" stroke-linecap="round" stroke-linejoin="round">
  <!-- Body (violin shape) -->
  <path d="M26 26
           C18 26 14 32 14 40
           C14 50 20 58 32 58
           C44 58 50 50 50 40
           C50 32 46 26 38 26
           C36 22 36 16 38 12
           L26 12
           C28 16 28 22 26 26 Z"
        fill="#fff"/>
  <!-- Waist C-bouts -->
  <path d="M14 38 C18 38 20 36 20 34"/>
  <path d="M50 38 C46 38 44 36 44 34"/>
  <!-- F-holes -->
  <path d="M24 36 C23 40 23 44 25 48" />
  <path d="M40 36 C41 40 41 44 39 48" />
  <circle cx="23.5" cy="36.5" r="0.8" fill="#000"/>
  <circle cx="25" cy="48" r="0.8" fill="#000"/>
  <circle cx="40.5" cy="36.5" r="0.8" fill="#000"/>
  <circle cx="39" cy="48" r="0.8" fill="#000"/>
  <!-- Bridge -->
  <path d="M26 42 L38 42"/>
  <!-- Fingerboard -->
  <rect x="30" y="10" width="4" height="28" fill="#000"/>
  <!-- Scroll / pegbox -->
  <path d="M30 10 L30 6 C30 4 32 3 32 3 C32 3 34 4 34 6 L34 10"/>
  <circle cx="32" cy="5" r="1.2" fill="#000"/>
  <!-- Strings -->
  <line x1="30.8" y1="10" x2="30.8" y2="42" stroke-width="0.6"/>
  <line x1="31.6" y1="10" x2="31.6" y2="42" stroke-width="0.6"/>
  <line x1="32.4" y1="10" x2="32.4" y2="42" stroke-width="0.6"/>
  <line x1="33.2" y1="10" x2="33.2" y2="42" stroke-width="0.6"/>
</svg>
